<?xml version="1.0" standalone="no"?><!DOCTYPE svg PUBLIC "-//W3C//DTD SVG 1.1//EN" "http://www.w3.org/Graphics/SVG/1.1/DTD/svg11.dtd"><svg t="1775965686366" class="icon" viewBox="0 0 1024 1024" version="1.1" xmlns="http://www.w3.org/2000/svg" p-id="5771" xmlns:xlink="http://www.w3.org/1999/xlink" width="200" height="200"><path d="M528.896 1.024C419.328 8.192 310.272 49.664 228.864 114.176 130.048 192.512 64.512 297.984 41.472 415.232c-8.704 45.568-11.776 108.544-7.168 148.48 13.824 115.2 59.392 212.48 138.24 294.912 74.752 78.336 174.592 133.12 282.624 154.624 65.536 12.8 130.56 14.336 195.072 3.584 111.616-18.432 212.992-69.632 290.816-146.432 21.504-21.504 43.52-46.592 41.984-48.64-0.512-0.512-95.232-70.656-210.432-155.136-114.688-84.48-209.408-154.112-209.408-154.624 0-0.512 96.256-67.584 214.016-148.992 117.76-81.408 214.016-148.992 214.528-149.504 1.024-2.56-30.208-39.424-51.2-59.904C862.208 76.288 762.88 26.112 650.24 7.168 611.84 1.024 564.224-1.536 528.896 1.024z m140.8 158.72c12.8 3.584 22.016 9.216 31.232 18.944 31.232 32.768 20.48 84.992-20.992 103.936-10.24 5.12-12.288 5.12-30.208 5.12-16.896 0-19.968-0.512-28.672-4.608-13.824-6.144-26.112-17.92-32.768-31.744-5.12-10.24-5.632-12.288-5.632-28.672 0-15.872 0.512-18.944 4.608-27.136 15.872-30.208 49.664-45.568 82.432-35.84z" fill="#939CAD" p-id="5772"></path></svg>